<?xml version="1.0" encoding="UTF-8"?>
<!DOCTYPE svg PUBLIC "-//W3C//DTD SVG 1.1//EN" "http://www.w3.org/Graphics/SVG/1.1/DTD/svg11.dtd">
<!-- Creator: CorelDRAW X7 -->
<svg xmlns="http://www.w3.org/2000/svg" xml:space="preserve" width="0.217433in" height="0.26452in" version="1.1" style="shape-rendering:geometricPrecision; text-rendering:geometricPrecision; image-rendering:optimizeQuality; fill-rule:evenodd; clip-rule:evenodd"
viewBox="0 0 217 265"
 xmlns:xlink="http://www.w3.org/1999/xlink">
 <defs>
  <style type="text/css">
   <![CDATA[
    .fil0 {fill:black;fill-rule:nonzero}
   ]]>
  </style>
 </defs>
 <g id="Layer_x0020_1">
  <metadata id="CorelCorpID_0Corel-Layer"/>
  <path class="fil0" d="M217 251c0,18 -26,18 -26,0 0,-45 -37,-82 -82,-82 -46,0 -82,37 -82,82 0,18 -27,18 -27,0 0,-41 23,-79 60,-97 -22,-16 -36,-42 -36,-69 0,-47 38,-85 85,-85 46,0 84,38 84,85 0,27 -13,53 -36,69 37,18 60,56 60,97zm-108 -224c-32,0 -58,26 -58,58 0,32 26,58 58,58 32,0 58,-26 58,-58 0,-32 -26,-58 -58,-58z"/>
 </g>
</svg>
